# xmcd CD database file
#
# Track frame offsets:
#	150
#	16811
#	34828
#	50989
#	65430
#	85595
#	99734
#	111929
#	131800
#	150680
#
# Disc length: 2350 seconds
#
# Revision: 0
# Processed by: cddbd v1.5.1PL0 Copyright (c) Steve Scherf et al.
# Submitted via: CDex 1.51
#
DISCID=84092c0a
DTITLE=The C.R. Avery Band - Chainsmoking Blues
DYEAR=2005
DGENRE=Blues
TTITLE0=Disclosure
TTITLE1=Door by the River
TTITLE2=Chainsmoking Blues
TTITLE3=Madison Twenty-Two
TTITLE4=Eye of the Storm
TTITLE5=Commercial Drive
TTITLE6=Left East Van
TTITLE7=When I'm Gone
TTITLE8=The World Needs Another Bill Hicks
TTITLE9=News Travels Fast
EXTD=YEAR: 2005
EXTT0=
EXTT1=
EXTT2=
EXTT3=
EXTT4=
EXTT5=
EXTT6=
EXTT7=
EXTT8=
EXTT9=
PLAYORDER=
